<mxfile host="app.diagrams.net" modified="2024-05-26T12:59:15.330Z" agent="Mozilla/5.0 (Windows NT 10.0; Win64; x64) AppleWebKit/537.36 (KHTML, like Gecko) Chrome/125.0.0.0 Safari/537.36" etag="cAQaXYiSLhS0IIrMlavc" version="24.4.8" type="github">
  <diagram name="Page-1" id="vNvksOX54dR4hE7s2svA">
    <mxGraphModel dx="2000" dy="579" grid="1" gridSize="10" guides="1" tooltips="1" connect="1" arrows="1" fold="1" page="1" pageScale="1" pageWidth="827" pageHeight="1169" math="0" shadow="0">
      <root>
        <mxCell id="0" />
        <mxCell id="1" parent="0" />
        <mxCell id="uuvHbY3PoXag-TMwIJdu-6" style="edgeStyle=orthogonalEdgeStyle;rounded=0;orthogonalLoop=1;jettySize=auto;html=1;exitX=0;exitY=0.5;exitDx=0;exitDy=0;entryX=1;entryY=0;entryDx=0;entryDy=0;" edge="1" parent="1" source="uuvHbY3PoXag-TMwIJdu-1" target="uuvHbY3PoXag-TMwIJdu-7">
          <mxGeometry relative="1" as="geometry">
            <mxPoint x="500" y="55" as="targetPoint" />
          </mxGeometry>
        </mxCell>
        <mxCell id="uuvHbY3PoXag-TMwIJdu-13" value="" style="edgeStyle=isometricEdgeStyle;rounded=0;orthogonalLoop=1;jettySize=auto;html=1;exitX=0.5;exitY=1;exitDx=0;exitDy=0;" edge="1" parent="1" source="uuvHbY3PoXag-TMwIJdu-1">
          <mxGeometry relative="1" as="geometry">
            <mxPoint x="700" y="140" as="targetPoint" />
          </mxGeometry>
        </mxCell>
        <mxCell id="uuvHbY3PoXag-TMwIJdu-1" value="1" style="ellipse;whiteSpace=wrap;html=1;aspect=fixed;" vertex="1" parent="1">
          <mxGeometry x="680" y="30" width="50" height="50" as="geometry" />
        </mxCell>
        <mxCell id="uuvHbY3PoXag-TMwIJdu-86" style="edgeStyle=orthogonalEdgeStyle;rounded=0;orthogonalLoop=1;jettySize=auto;html=1;exitX=0;exitY=0.5;exitDx=0;exitDy=0;entryX=0;entryY=0.5;entryDx=0;entryDy=0;" edge="1" parent="1" source="uuvHbY3PoXag-TMwIJdu-7" target="uuvHbY3PoXag-TMwIJdu-25">
          <mxGeometry relative="1" as="geometry">
            <Array as="points">
              <mxPoint x="-140" y="55" />
              <mxPoint x="-140" y="1045" />
            </Array>
          </mxGeometry>
        </mxCell>
        <mxCell id="uuvHbY3PoXag-TMwIJdu-7" value="2" style="ellipse;whiteSpace=wrap;html=1;aspect=fixed;" vertex="1" parent="1">
          <mxGeometry x="480" y="27.5" width="55" height="55" as="geometry" />
        </mxCell>
        <mxCell id="uuvHbY3PoXag-TMwIJdu-11" value="&lt;b&gt;&lt;i&gt;&lt;font style=&quot;font-size: 15px;&quot;&gt;Ð¢&lt;/font&gt;&lt;/i&gt;&lt;/b&gt;" style="text;align=center;html=1;verticalAlign=middle;whiteSpace=wrap;rounded=0;strokeWidth=3;" vertex="1" parent="1">
          <mxGeometry x="540" width="60" height="30" as="geometry" />
        </mxCell>
        <mxCell id="uuvHbY3PoXag-TMwIJdu-15" value="" style="edgeStyle=isometricEdgeStyle;rounded=0;orthogonalLoop=1;jettySize=auto;html=1;exitX=0.5;exitY=1;exitDx=0;exitDy=0;" edge="1" parent="1" source="uuvHbY3PoXag-TMwIJdu-12">
          <mxGeometry relative="1" as="geometry">
            <mxPoint x="690" y="240" as="targetPoint" />
          </mxGeometry>
        </mxCell>
        <mxCell id="uuvHbY3PoXag-TMwIJdu-12" value="3" style="ellipse;whiteSpace=wrap;html=1;aspect=fixed;" vertex="1" parent="1">
          <mxGeometry x="670" y="140" width="50" height="50" as="geometry" />
        </mxCell>
        <mxCell id="uuvHbY3PoXag-TMwIJdu-17" value="" style="edgeStyle=elbowEdgeStyle;rounded=0;orthogonalLoop=1;jettySize=auto;elbow=vertical;html=1;" edge="1" parent="1" source="uuvHbY3PoXag-TMwIJdu-14" target="uuvHbY3PoXag-TMwIJdu-16">
          <mxGeometry relative="1" as="geometry">
            <Array as="points">
              <mxPoint x="600" y="260" />
            </Array>
          </mxGeometry>
        </mxCell>
        <mxCell id="uuvHbY3PoXag-TMwIJdu-14" value="4,1" style="ellipse;whiteSpace=wrap;html=1;aspect=fixed;" vertex="1" parent="1">
          <mxGeometry x="660" y="240" width="50" height="50" as="geometry" />
        </mxCell>
        <mxCell id="uuvHbY3PoXag-TMwIJdu-19" value="" style="edgeStyle=elbowEdgeStyle;rounded=0;orthogonalLoop=1;jettySize=auto;elbow=vertical;html=1;" edge="1" parent="1" source="uuvHbY3PoXag-TMwIJdu-16" target="uuvHbY3PoXag-TMwIJdu-18">
          <mxGeometry relative="1" as="geometry">
            <Array as="points">
              <mxPoint x="640" y="320" />
            </Array>
          </mxGeometry>
        </mxCell>
        <mxCell id="uuvHbY3PoXag-TMwIJdu-31" value="" style="edgeStyle=elbowEdgeStyle;rounded=0;orthogonalLoop=1;jettySize=auto;elbow=vertical;html=1;" edge="1" parent="1" source="uuvHbY3PoXag-TMwIJdu-16" target="uuvHbY3PoXag-TMwIJdu-30">
          <mxGeometry relative="1" as="geometry">
            <Array as="points">
              <mxPoint x="440" y="310" />
            </Array>
          </mxGeometry>
        </mxCell>
        <mxCell id="uuvHbY3PoXag-TMwIJdu-16" value="4,2" style="ellipse;whiteSpace=wrap;html=1;aspect=fixed;" vertex="1" parent="1">
          <mxGeometry x="490" y="290" width="50" height="50" as="geometry" />
        </mxCell>
        <mxCell id="uuvHbY3PoXag-TMwIJdu-21" value="" style="edgeStyle=elbowEdgeStyle;rounded=0;orthogonalLoop=1;jettySize=auto;elbow=vertical;html=1;" edge="1" parent="1" source="uuvHbY3PoXag-TMwIJdu-18" target="uuvHbY3PoXag-TMwIJdu-20">
          <mxGeometry relative="1" as="geometry">
            <Array as="points">
              <mxPoint x="750" y="440" />
            </Array>
          </mxGeometry>
        </mxCell>
        <mxCell id="uuvHbY3PoXag-TMwIJdu-23" value="" style="edgeStyle=elbowEdgeStyle;rounded=0;orthogonalLoop=1;jettySize=auto;elbow=vertical;html=1;" edge="1" parent="1" source="uuvHbY3PoXag-TMwIJdu-18" target="uuvHbY3PoXag-TMwIJdu-22">
          <mxGeometry relative="1" as="geometry" />
        </mxCell>
        <mxCell id="uuvHbY3PoXag-TMwIJdu-18" value="21" style="ellipse;whiteSpace=wrap;html=1;aspect=fixed;" vertex="1" parent="1">
          <mxGeometry x="670" y="420" width="50" height="50" as="geometry" />
        </mxCell>
        <mxCell id="uuvHbY3PoXag-TMwIJdu-27" style="edgeStyle=elbowEdgeStyle;rounded=0;orthogonalLoop=1;jettySize=auto;elbow=vertical;html=1;entryX=1;entryY=1;entryDx=0;entryDy=0;" edge="1" parent="1" source="uuvHbY3PoXag-TMwIJdu-20" target="uuvHbY3PoXag-TMwIJdu-25">
          <mxGeometry relative="1" as="geometry">
            <Array as="points">
              <mxPoint x="700" y="1063" />
            </Array>
          </mxGeometry>
        </mxCell>
        <mxCell id="uuvHbY3PoXag-TMwIJdu-20" value="23" style="ellipse;whiteSpace=wrap;html=1;aspect=fixed;" vertex="1" parent="1">
          <mxGeometry x="770" y="480" width="50" height="50" as="geometry" />
        </mxCell>
        <mxCell id="uuvHbY3PoXag-TMwIJdu-26" value="" style="edgeStyle=elbowEdgeStyle;rounded=0;orthogonalLoop=1;jettySize=auto;elbow=vertical;html=1;" edge="1" parent="1" source="uuvHbY3PoXag-TMwIJdu-22" target="uuvHbY3PoXag-TMwIJdu-25">
          <mxGeometry relative="1" as="geometry">
            <Array as="points">
              <mxPoint x="500" y="1045" />
            </Array>
          </mxGeometry>
        </mxCell>
        <mxCell id="uuvHbY3PoXag-TMwIJdu-22" value="22" style="ellipse;whiteSpace=wrap;html=1;aspect=fixed;" vertex="1" parent="1">
          <mxGeometry x="590" y="480" width="50" height="50" as="geometry" />
        </mxCell>
        <mxCell id="uuvHbY3PoXag-TMwIJdu-25" value="24" style="ellipse;whiteSpace=wrap;html=1;aspect=fixed;" vertex="1" parent="1">
          <mxGeometry x="350" y="1020" width="50" height="50" as="geometry" />
        </mxCell>
        <mxCell id="uuvHbY3PoXag-TMwIJdu-29" value="" style="edgeStyle=elbowEdgeStyle;rounded=0;orthogonalLoop=1;jettySize=auto;elbow=vertical;html=1;" edge="1" parent="1" source="uuvHbY3PoXag-TMwIJdu-28" target="uuvHbY3PoXag-TMwIJdu-16">
          <mxGeometry relative="1" as="geometry" />
        </mxCell>
        <mxCell id="uuvHbY3PoXag-TMwIJdu-28" value="4,3" style="ellipse;whiteSpace=wrap;html=1;aspect=fixed;" vertex="1" parent="1">
          <mxGeometry x="430" y="370" width="50" height="50" as="geometry" />
        </mxCell>
        <mxCell id="uuvHbY3PoXag-TMwIJdu-33" value="" style="edgeStyle=elbowEdgeStyle;rounded=0;orthogonalLoop=1;jettySize=auto;elbow=vertical;html=1;" edge="1" parent="1" source="uuvHbY3PoXag-TMwIJdu-30" target="uuvHbY3PoXag-TMwIJdu-32">
          <mxGeometry relative="1" as="geometry">
            <Array as="points">
              <mxPoint x="310" y="200" />
            </Array>
          </mxGeometry>
        </mxCell>
        <mxCell id="uuvHbY3PoXag-TMwIJdu-30" value="5" style="ellipse;whiteSpace=wrap;html=1;aspect=fixed;" vertex="1" parent="1">
          <mxGeometry x="364" y="180" width="50" height="50" as="geometry" />
        </mxCell>
        <mxCell id="uuvHbY3PoXag-TMwIJdu-35" value="" style="edgeStyle=elbowEdgeStyle;rounded=0;orthogonalLoop=1;jettySize=auto;elbow=vertical;html=1;" edge="1" parent="1" source="uuvHbY3PoXag-TMwIJdu-32" target="uuvHbY3PoXag-TMwIJdu-34">
          <mxGeometry relative="1" as="geometry">
            <Array as="points">
              <mxPoint x="155" y="260" />
            </Array>
          </mxGeometry>
        </mxCell>
        <mxCell id="uuvHbY3PoXag-TMwIJdu-37" value="" style="edgeStyle=elbowEdgeStyle;rounded=0;orthogonalLoop=1;jettySize=auto;elbow=vertical;html=1;" edge="1" parent="1" source="uuvHbY3PoXag-TMwIJdu-32" target="uuvHbY3PoXag-TMwIJdu-36">
          <mxGeometry relative="1" as="geometry" />
        </mxCell>
        <mxCell id="uuvHbY3PoXag-TMwIJdu-32" value="6" style="ellipse;whiteSpace=wrap;html=1;aspect=fixed;" vertex="1" parent="1">
          <mxGeometry x="200" y="240" width="50" height="50" as="geometry" />
        </mxCell>
        <mxCell id="uuvHbY3PoXag-TMwIJdu-38" value="" style="edgeStyle=elbowEdgeStyle;rounded=0;orthogonalLoop=1;jettySize=auto;elbow=vertical;html=1;" edge="1" parent="1" source="uuvHbY3PoXag-TMwIJdu-34" target="uuvHbY3PoXag-TMwIJdu-36">
          <mxGeometry relative="1" as="geometry" />
        </mxCell>
        <mxCell id="uuvHbY3PoXag-TMwIJdu-34" value="7" style="ellipse;whiteSpace=wrap;html=1;aspect=fixed;" vertex="1" parent="1">
          <mxGeometry x="130" y="320" width="50" height="50" as="geometry" />
        </mxCell>
        <mxCell id="uuvHbY3PoXag-TMwIJdu-40" value="" style="edgeStyle=elbowEdgeStyle;rounded=0;orthogonalLoop=1;jettySize=auto;html=1;entryX=0;entryY=1;entryDx=0;entryDy=0;" edge="1" parent="1" source="uuvHbY3PoXag-TMwIJdu-36" target="uuvHbY3PoXag-TMwIJdu-39">
          <mxGeometry relative="1" as="geometry">
            <Array as="points">
              <mxPoint x="310" y="380" />
            </Array>
          </mxGeometry>
        </mxCell>
        <mxCell id="uuvHbY3PoXag-TMwIJdu-42" value="" style="edgeStyle=elbowEdgeStyle;rounded=0;orthogonalLoop=1;jettySize=auto;elbow=vertical;html=1;" edge="1" parent="1" source="uuvHbY3PoXag-TMwIJdu-36" target="uuvHbY3PoXag-TMwIJdu-41">
          <mxGeometry relative="1" as="geometry" />
        </mxCell>
        <mxCell id="uuvHbY3PoXag-TMwIJdu-36" value="8" style="ellipse;whiteSpace=wrap;html=1;aspect=fixed;" vertex="1" parent="1">
          <mxGeometry x="220" y="320" width="50" height="50" as="geometry" />
        </mxCell>
        <mxCell id="uuvHbY3PoXag-TMwIJdu-65" style="edgeStyle=orthogonalEdgeStyle;rounded=0;orthogonalLoop=1;jettySize=auto;html=1;exitX=0.5;exitY=1;exitDx=0;exitDy=0;entryX=1;entryY=0;entryDx=0;entryDy=0;" edge="1" parent="1" source="uuvHbY3PoXag-TMwIJdu-39" target="uuvHbY3PoXag-TMwIJdu-25">
          <mxGeometry relative="1" as="geometry">
            <Array as="points">
              <mxPoint x="365" y="760" />
              <mxPoint x="393" y="760" />
            </Array>
          </mxGeometry>
        </mxCell>
        <mxCell id="uuvHbY3PoXag-TMwIJdu-39" value="18" style="ellipse;whiteSpace=wrap;html=1;aspect=fixed;" vertex="1" parent="1">
          <mxGeometry x="340" y="370" width="50" height="50" as="geometry" />
        </mxCell>
        <mxCell id="uuvHbY3PoXag-TMwIJdu-44" value="" style="edgeStyle=elbowEdgeStyle;rounded=0;orthogonalLoop=1;jettySize=auto;elbow=vertical;html=1;" edge="1" parent="1" source="uuvHbY3PoXag-TMwIJdu-41" target="uuvHbY3PoXag-TMwIJdu-43">
          <mxGeometry relative="1" as="geometry" />
        </mxCell>
        <mxCell id="uuvHbY3PoXag-TMwIJdu-41" value="9" style="ellipse;whiteSpace=wrap;html=1;aspect=fixed;" vertex="1" parent="1">
          <mxGeometry x="190" y="400" width="50" height="50" as="geometry" />
        </mxCell>
        <mxCell id="uuvHbY3PoXag-TMwIJdu-46" value="" style="edgeStyle=elbowEdgeStyle;rounded=0;orthogonalLoop=1;jettySize=auto;elbow=vertical;html=1;" edge="1" parent="1" source="uuvHbY3PoXag-TMwIJdu-43" target="uuvHbY3PoXag-TMwIJdu-45">
          <mxGeometry relative="1" as="geometry" />
        </mxCell>
        <mxCell id="uuvHbY3PoXag-TMwIJdu-43" value="10" style="ellipse;whiteSpace=wrap;html=1;aspect=fixed;" vertex="1" parent="1">
          <mxGeometry x="190" y="490" width="50" height="50" as="geometry" />
        </mxCell>
        <mxCell id="uuvHbY3PoXag-TMwIJdu-48" value="" style="edgeStyle=elbowEdgeStyle;rounded=0;orthogonalLoop=1;jettySize=auto;elbow=vertical;html=1;" edge="1" parent="1" source="uuvHbY3PoXag-TMwIJdu-45" target="uuvHbY3PoXag-TMwIJdu-47">
          <mxGeometry relative="1" as="geometry" />
        </mxCell>
        <mxCell id="uuvHbY3PoXag-TMwIJdu-45" value="11,1" style="ellipse;whiteSpace=wrap;html=1;aspect=fixed;" vertex="1" parent="1">
          <mxGeometry x="190" y="585" width="50" height="50" as="geometry" />
        </mxCell>
        <mxCell id="uuvHbY3PoXag-TMwIJdu-52" value="" style="edgeStyle=elbowEdgeStyle;rounded=0;orthogonalLoop=1;jettySize=auto;elbow=vertical;html=1;" edge="1" parent="1" source="uuvHbY3PoXag-TMwIJdu-47" target="uuvHbY3PoXag-TMwIJdu-51">
          <mxGeometry relative="1" as="geometry" />
        </mxCell>
        <mxCell id="uuvHbY3PoXag-TMwIJdu-81" style="edgeStyle=orthogonalEdgeStyle;rounded=0;orthogonalLoop=1;jettySize=auto;html=1;exitX=0;exitY=0.5;exitDx=0;exitDy=0;entryX=0.5;entryY=0;entryDx=0;entryDy=0;elbow=vertical;" edge="1" parent="1" source="uuvHbY3PoXag-TMwIJdu-47" target="uuvHbY3PoXag-TMwIJdu-71">
          <mxGeometry relative="1" as="geometry" />
        </mxCell>
        <mxCell id="uuvHbY3PoXag-TMwIJdu-47" value="11,2" style="ellipse;whiteSpace=wrap;html=1;aspect=fixed;" vertex="1" parent="1">
          <mxGeometry x="170" y="690" width="50" height="50" as="geometry" />
        </mxCell>
        <mxCell id="uuvHbY3PoXag-TMwIJdu-54" style="edgeStyle=elbowEdgeStyle;rounded=0;orthogonalLoop=1;jettySize=auto;html=1;exitX=0;exitY=1;exitDx=0;exitDy=0;" edge="1" parent="1" source="uuvHbY3PoXag-TMwIJdu-51">
          <mxGeometry relative="1" as="geometry">
            <mxPoint x="250" y="820" as="targetPoint" />
          </mxGeometry>
        </mxCell>
        <mxCell id="uuvHbY3PoXag-TMwIJdu-59" value="" style="edgeStyle=elbowEdgeStyle;rounded=0;orthogonalLoop=1;jettySize=auto;html=1;" edge="1" parent="1" source="uuvHbY3PoXag-TMwIJdu-51" target="uuvHbY3PoXag-TMwIJdu-58">
          <mxGeometry relative="1" as="geometry" />
        </mxCell>
        <mxCell id="uuvHbY3PoXag-TMwIJdu-51" value="15" style="ellipse;whiteSpace=wrap;html=1;aspect=fixed;" vertex="1" parent="1">
          <mxGeometry x="270" y="640" width="50" height="50" as="geometry" />
        </mxCell>
        <mxCell id="uuvHbY3PoXag-TMwIJdu-62" style="edgeStyle=elbowEdgeStyle;rounded=0;orthogonalLoop=1;jettySize=auto;html=1;exitX=0.5;exitY=1;exitDx=0;exitDy=0;entryX=0;entryY=0.5;entryDx=0;entryDy=0;" edge="1" parent="1" source="uuvHbY3PoXag-TMwIJdu-56" target="uuvHbY3PoXag-TMwIJdu-61">
          <mxGeometry relative="1" as="geometry" />
        </mxCell>
        <mxCell id="uuvHbY3PoXag-TMwIJdu-56" value="16" style="ellipse;whiteSpace=wrap;html=1;aspect=fixed;" vertex="1" parent="1">
          <mxGeometry x="200" y="800" width="50" height="50" as="geometry" />
        </mxCell>
        <mxCell id="uuvHbY3PoXag-TMwIJdu-60" style="edgeStyle=elbowEdgeStyle;rounded=0;orthogonalLoop=1;jettySize=auto;html=1;exitX=0;exitY=1;exitDx=0;exitDy=0;" edge="1" parent="1" source="uuvHbY3PoXag-TMwIJdu-58">
          <mxGeometry relative="1" as="geometry">
            <mxPoint x="277.66666666666674" y="910" as="targetPoint" />
          </mxGeometry>
        </mxCell>
        <mxCell id="uuvHbY3PoXag-TMwIJdu-58" value="17" style="ellipse;whiteSpace=wrap;html=1;aspect=fixed;" vertex="1" parent="1">
          <mxGeometry x="270" y="770" width="50" height="50" as="geometry" />
        </mxCell>
        <mxCell id="uuvHbY3PoXag-TMwIJdu-64" style="edgeStyle=elbowEdgeStyle;rounded=0;orthogonalLoop=1;jettySize=auto;html=1;exitX=1;exitY=0.5;exitDx=0;exitDy=0;entryX=0;entryY=1;entryDx=0;entryDy=0;" edge="1" parent="1" source="uuvHbY3PoXag-TMwIJdu-61" target="uuvHbY3PoXag-TMwIJdu-28">
          <mxGeometry relative="1" as="geometry">
            <Array as="points">
              <mxPoint x="437" y="670" />
            </Array>
          </mxGeometry>
        </mxCell>
        <mxCell id="uuvHbY3PoXag-TMwIJdu-67" value="" style="edgeStyle=elbowEdgeStyle;rounded=0;orthogonalLoop=1;jettySize=auto;html=1;" edge="1" parent="1" source="uuvHbY3PoXag-TMwIJdu-61" target="uuvHbY3PoXag-TMwIJdu-66">
          <mxGeometry relative="1" as="geometry" />
        </mxCell>
        <mxCell id="uuvHbY3PoXag-TMwIJdu-61" value="19" style="ellipse;whiteSpace=wrap;html=1;aspect=fixed;" vertex="1" parent="1">
          <mxGeometry x="250" y="910" width="50" height="50" as="geometry" />
        </mxCell>
        <mxCell id="uuvHbY3PoXag-TMwIJdu-70" style="edgeStyle=elbowEdgeStyle;rounded=0;orthogonalLoop=1;jettySize=auto;html=1;exitX=1;exitY=1;exitDx=0;exitDy=0;entryX=0.5;entryY=1;entryDx=0;entryDy=0;" edge="1" parent="1" source="uuvHbY3PoXag-TMwIJdu-66" target="uuvHbY3PoXag-TMwIJdu-28">
          <mxGeometry relative="1" as="geometry">
            <Array as="points">
              <mxPoint x="455" y="700" />
            </Array>
          </mxGeometry>
        </mxCell>
        <mxCell id="uuvHbY3PoXag-TMwIJdu-66" value="20" style="ellipse;whiteSpace=wrap;html=1;aspect=fixed;" vertex="1" parent="1">
          <mxGeometry x="120" y="940" width="50" height="50" as="geometry" />
        </mxCell>
        <mxCell id="uuvHbY3PoXag-TMwIJdu-74" value="" style="edgeStyle=elbowEdgeStyle;rounded=0;orthogonalLoop=1;jettySize=auto;html=1;" edge="1" parent="1" source="uuvHbY3PoXag-TMwIJdu-71" target="uuvHbY3PoXag-TMwIJdu-73">
          <mxGeometry relative="1" as="geometry" />
        </mxCell>
        <mxCell id="uuvHbY3PoXag-TMwIJdu-71" value="12" style="ellipse;whiteSpace=wrap;html=1;aspect=fixed;" vertex="1" parent="1">
          <mxGeometry x="40" y="690" width="50" height="50" as="geometry" />
        </mxCell>
        <mxCell id="uuvHbY3PoXag-TMwIJdu-79" value="" style="edgeStyle=elbowEdgeStyle;rounded=0;orthogonalLoop=1;jettySize=auto;html=1;" edge="1" parent="1" source="uuvHbY3PoXag-TMwIJdu-73" target="uuvHbY3PoXag-TMwIJdu-78">
          <mxGeometry relative="1" as="geometry" />
        </mxCell>
        <mxCell id="uuvHbY3PoXag-TMwIJdu-83" value="" style="edgeStyle=elbowEdgeStyle;rounded=0;orthogonalLoop=1;jettySize=auto;html=1;" edge="1" parent="1" source="uuvHbY3PoXag-TMwIJdu-73" target="uuvHbY3PoXag-TMwIJdu-82">
          <mxGeometry relative="1" as="geometry" />
        </mxCell>
        <mxCell id="uuvHbY3PoXag-TMwIJdu-73" value="13" style="ellipse;whiteSpace=wrap;html=1;aspect=fixed;" vertex="1" parent="1">
          <mxGeometry x="40" y="770" width="50" height="50" as="geometry" />
        </mxCell>
        <mxCell id="uuvHbY3PoXag-TMwIJdu-80" style="edgeStyle=orthogonalEdgeStyle;rounded=0;orthogonalLoop=1;jettySize=auto;html=1;exitX=1;exitY=0.5;exitDx=0;exitDy=0;entryX=0.5;entryY=1;entryDx=0;entryDy=0;" edge="1" parent="1" source="uuvHbY3PoXag-TMwIJdu-78" target="uuvHbY3PoXag-TMwIJdu-47">
          <mxGeometry relative="1" as="geometry">
            <Array as="points">
              <mxPoint x="210" y="795" />
              <mxPoint x="210" y="750" />
              <mxPoint x="195" y="750" />
            </Array>
          </mxGeometry>
        </mxCell>
        <mxCell id="uuvHbY3PoXag-TMwIJdu-78" value="11,3" style="ellipse;whiteSpace=wrap;html=1;aspect=fixed;" vertex="1" parent="1">
          <mxGeometry x="130" y="770" width="50" height="50" as="geometry" />
        </mxCell>
        <mxCell id="uuvHbY3PoXag-TMwIJdu-84" style="edgeStyle=elbowEdgeStyle;rounded=0;orthogonalLoop=1;jettySize=auto;html=1;exitX=0.5;exitY=1;exitDx=0;exitDy=0;entryX=0;entryY=0;entryDx=0;entryDy=0;" edge="1" parent="1" source="uuvHbY3PoXag-TMwIJdu-82" target="uuvHbY3PoXag-TMwIJdu-25">
          <mxGeometry relative="1" as="geometry">
            <Array as="points">
              <mxPoint x="-65" y="910" />
            </Array>
          </mxGeometry>
        </mxCell>
        <mxCell id="uuvHbY3PoXag-TMwIJdu-82" value="14" style="ellipse;whiteSpace=wrap;html=1;aspect=fixed;" vertex="1" parent="1">
          <mxGeometry x="-90" y="770" width="50" height="50" as="geometry" />
        </mxCell>
        <mxCell id="uuvHbY3PoXag-TMwIJdu-88" value="&lt;b&gt;&lt;font size=&quot;1&quot; style=&quot;&quot;&gt;&lt;i style=&quot;font-size: 15px;&quot;&gt;F&lt;/i&gt;&lt;/font&gt;&lt;/b&gt;" style="text;align=center;html=1;verticalAlign=middle;whiteSpace=wrap;rounded=0;strokeWidth=3;" vertex="1" parent="1">
          <mxGeometry x="710" y="82.5" width="60" height="30" as="geometry" />
        </mxCell>
        <mxCell id="uuvHbY3PoXag-TMwIJdu-89" value="&lt;b&gt;&lt;font size=&quot;1&quot; style=&quot;&quot;&gt;&lt;i style=&quot;font-size: 15px;&quot;&gt;F&lt;/i&gt;&lt;/font&gt;&lt;/b&gt;" style="text;align=center;html=1;verticalAlign=middle;whiteSpace=wrap;rounded=0;strokeWidth=3;" vertex="1" parent="1">
          <mxGeometry x="560" y="290" width="60" height="30" as="geometry" />
        </mxCell>
        <mxCell id="uuvHbY3PoXag-TMwIJdu-90" value="&lt;b&gt;&lt;i&gt;&lt;font style=&quot;font-size: 15px;&quot;&gt;Ð¢&lt;/font&gt;&lt;/i&gt;&lt;/b&gt;" style="text;align=center;html=1;verticalAlign=middle;whiteSpace=wrap;rounded=0;strokeWidth=3;" vertex="1" parent="1">
          <mxGeometry x="414" y="280" width="60" height="30" as="geometry" />
        </mxCell>
        <mxCell id="uuvHbY3PoXag-TMwIJdu-91" value="&lt;b&gt;&lt;font size=&quot;1&quot; style=&quot;&quot;&gt;&lt;i style=&quot;font-size: 15px;&quot;&gt;F&lt;/i&gt;&lt;/font&gt;&lt;/b&gt;" style="text;align=center;html=1;verticalAlign=middle;whiteSpace=wrap;rounded=0;strokeWidth=3;" vertex="1" parent="1">
          <mxGeometry x="730" y="410" width="60" height="30" as="geometry" />
        </mxCell>
        <mxCell id="uuvHbY3PoXag-TMwIJdu-92" value="&lt;b&gt;&lt;i&gt;&lt;font style=&quot;font-size: 15px;&quot;&gt;Ð¢&lt;/font&gt;&lt;/i&gt;&lt;/b&gt;" style="text;align=center;html=1;verticalAlign=middle;whiteSpace=wrap;rounded=0;strokeWidth=3;" vertex="1" parent="1">
          <mxGeometry x="620" y="440" width="60" height="30" as="geometry" />
        </mxCell>
        <mxCell id="uuvHbY3PoXag-TMwIJdu-93" value="&lt;b&gt;&lt;font size=&quot;1&quot; style=&quot;&quot;&gt;&lt;i style=&quot;font-size: 15px;&quot;&gt;F&lt;/i&gt;&lt;/font&gt;&lt;/b&gt;" style="text;align=center;html=1;verticalAlign=middle;whiteSpace=wrap;rounded=0;strokeWidth=3;" vertex="1" parent="1">
          <mxGeometry x="230" y="280" width="60" height="30" as="geometry" />
        </mxCell>
        <mxCell id="uuvHbY3PoXag-TMwIJdu-94" value="&lt;b&gt;&lt;i&gt;&lt;font style=&quot;font-size: 15px;&quot;&gt;Ð¢&lt;/font&gt;&lt;/i&gt;&lt;/b&gt;" style="text;align=center;html=1;verticalAlign=middle;whiteSpace=wrap;rounded=0;strokeWidth=3;" vertex="1" parent="1">
          <mxGeometry x="150" y="230" width="60" height="30" as="geometry" />
        </mxCell>
        <mxCell id="uuvHbY3PoXag-TMwIJdu-95" value="&lt;b&gt;&lt;font size=&quot;1&quot; style=&quot;&quot;&gt;&lt;i style=&quot;font-size: 15px;&quot;&gt;F&lt;/i&gt;&lt;/font&gt;&lt;/b&gt;" style="text;align=center;html=1;verticalAlign=middle;whiteSpace=wrap;rounded=0;strokeWidth=3;" vertex="1" parent="1">
          <mxGeometry x="290" y="350" width="60" height="30" as="geometry" />
        </mxCell>
        <mxCell id="uuvHbY3PoXag-TMwIJdu-96" value="&lt;b&gt;&lt;i&gt;&lt;font style=&quot;font-size: 15px;&quot;&gt;Ð¢&lt;/font&gt;&lt;/i&gt;&lt;/b&gt;" style="text;align=center;html=1;verticalAlign=middle;whiteSpace=wrap;rounded=0;strokeWidth=3;" vertex="1" parent="1">
          <mxGeometry x="220" y="390" width="60" height="30" as="geometry" />
        </mxCell>
        <mxCell id="uuvHbY3PoXag-TMwIJdu-97" value="&lt;b&gt;&lt;font size=&quot;1&quot; style=&quot;&quot;&gt;&lt;i style=&quot;font-size: 15px;&quot;&gt;F&lt;/i&gt;&lt;/font&gt;&lt;/b&gt;" style="text;align=center;html=1;verticalAlign=middle;whiteSpace=wrap;rounded=0;strokeWidth=3;" vertex="1" parent="1">
          <mxGeometry x="210" y="680" width="50" height="25" as="geometry" />
        </mxCell>
        <mxCell id="uuvHbY3PoXag-TMwIJdu-98" value="&lt;b&gt;&lt;i&gt;&lt;font style=&quot;font-size: 15px;&quot;&gt;Ð¢&lt;/font&gt;&lt;/i&gt;&lt;/b&gt;" style="text;align=center;html=1;verticalAlign=middle;whiteSpace=wrap;rounded=0;strokeWidth=3;" vertex="1" parent="1">
          <mxGeometry x="120" y="680" width="60" height="30" as="geometry" />
        </mxCell>
        <mxCell id="uuvHbY3PoXag-TMwIJdu-99" value="&lt;b&gt;&lt;i&gt;&lt;font style=&quot;font-size: 15px;&quot;&gt;Ð¢&lt;/font&gt;&lt;/i&gt;&lt;/b&gt;" style="text;align=center;html=1;verticalAlign=middle;whiteSpace=wrap;rounded=0;strokeWidth=3;" vertex="1" parent="1">
          <mxGeometry x="245" y="690" width="60" height="30" as="geometry" />
        </mxCell>
        <mxCell id="uuvHbY3PoXag-TMwIJdu-100" value="&lt;b&gt;&lt;font size=&quot;1&quot; style=&quot;&quot;&gt;&lt;i style=&quot;font-size: 15px;&quot;&gt;F&lt;/i&gt;&lt;/font&gt;&lt;/b&gt;" style="text;align=center;html=1;verticalAlign=middle;whiteSpace=wrap;rounded=0;strokeWidth=3;" vertex="1" parent="1">
          <mxGeometry x="280" y="692.5" width="50" height="25" as="geometry" />
        </mxCell>
        <mxCell id="uuvHbY3PoXag-TMwIJdu-101" value="&lt;b&gt;&lt;font size=&quot;1&quot; style=&quot;&quot;&gt;&lt;i style=&quot;font-size: 15px;&quot;&gt;F&lt;/i&gt;&lt;/font&gt;&lt;/b&gt;" style="text;align=center;html=1;verticalAlign=middle;whiteSpace=wrap;rounded=0;strokeWidth=3;" vertex="1" parent="1">
          <mxGeometry x="80" y="770" width="50" height="25" as="geometry" />
        </mxCell>
        <mxCell id="uuvHbY3PoXag-TMwIJdu-102" value="&lt;b&gt;&lt;i&gt;&lt;font style=&quot;font-size: 15px;&quot;&gt;Ð¢&lt;/font&gt;&lt;/i&gt;&lt;/b&gt;" style="text;align=center;html=1;verticalAlign=middle;whiteSpace=wrap;rounded=0;strokeWidth=3;" vertex="1" parent="1">
          <mxGeometry x="-30" y="765" width="60" height="30" as="geometry" />
        </mxCell>
        <mxCell id="uuvHbY3PoXag-TMwIJdu-103" value="&lt;b&gt;&lt;font size=&quot;1&quot; style=&quot;&quot;&gt;&lt;i style=&quot;font-size: 15px;&quot;&gt;F&lt;/i&gt;&lt;/font&gt;&lt;/b&gt;" style="text;align=center;html=1;verticalAlign=middle;whiteSpace=wrap;rounded=0;strokeWidth=3;" vertex="1" parent="1">
          <mxGeometry x="305" y="910" width="50" height="25" as="geometry" />
        </mxCell>
        <mxCell id="uuvHbY3PoXag-TMwIJdu-104" value="&lt;b&gt;&lt;i&gt;&lt;font style=&quot;font-size: 15px;&quot;&gt;Ð¢&lt;/font&gt;&lt;/i&gt;&lt;/b&gt;" style="text;align=center;html=1;verticalAlign=middle;whiteSpace=wrap;rounded=0;strokeWidth=3;" vertex="1" parent="1">
          <mxGeometry x="195" y="910" width="60" height="30" as="geometry" />
        </mxCell>
      </root>
    </mxGraphModel>
  </diagram>
</mxfile>
